<?xml version="1.0" encoding="utf-8"?>
<!-- Generator: Adobe Illustrator 18.0.0, SVG Export Plug-In . SVG Version: 6.00 Build 0)  -->
<!DOCTYPE svg PUBLIC "-//W3C//DTD SVG 1.1//EN" "http://www.w3.org/Graphics/SVG/1.1/DTD/svg11.dtd">
<svg version="1.1" id="图形" xmlns="http://www.w3.org/2000/svg" xmlns:xlink="http://www.w3.org/1999/xlink" x="0px" y="0px"
	 viewBox="15.167 -16.333 1000.636 1000.678" enable-background="new 15.167 -16.333 1000.636 1000.678" xml:space="preserve">
<g id="XMLID_708_">
	<g id="XMLID_739_">
		<g id="XMLID_740_">
			<rect id="XMLID_747_" x="693.857" y="320.678" fill="#FFF" width="36.402" height="205.247"/>
			<path id="XMLID_746_" fill="#FFF" d="M420.196,462.96c0,15.25-12.408,27.659-27.66,27.659h-45.11
				c-15.251,0-27.659-12.408-27.659-27.659V320.678h-36.402V462.96c0,35.324,28.737,64.061,64.061,64.061h45.11
				c35.324,0,64.062-28.737,64.062-64.061V320.678h-36.402V462.96z"/>
			<path id="XMLID_743_" fill="#FFF" d="M888.548,319.581h-62.212c-35.324,0-64.063,28.737-64.063,64.061v79.318
				c0,35.324,28.739,64.061,64.063,64.061h62.212c35.324,0,64.063-28.737,64.063-64.061v-79.318
				C952.61,348.318,923.871,319.581,888.548,319.581z M916.209,462.96c0,15.25-12.409,27.659-27.661,27.659h-62.212
				c-15.252,0-27.661-12.408-27.661-27.659v-79.318c0-15.251,12.408-27.659,27.661-27.659h62.212
				c15.252,0,27.661,12.408,27.661,27.659V462.96z"/>
			<path id="XMLID_742_" fill="#FFF" d="M78.118,383.642v142.283h36.402v-84.422h101.526l17.104-36.402H114.52v-21.459
				c0-15.251,12.408-27.66,27.66-27.66h90.97l17.104-36.402H142.18C106.856,319.58,78.118,348.318,78.118,383.642z"/>
			<path id="XMLID_741_" fill="#FFF" d="M609.247,405.101h-68.039c-8.93,0-16.194-7.265-16.194-16.195v-16.728
				c0-8.931,7.265-16.195,16.194-16.195h102.435l17.104-36.402h-119.54c-29.002,0-52.596,23.595-52.596,52.597v16.728
				c0,29.003,23.595,52.597,52.596,52.597h68.039c8.931,0,16.195,7.266,16.195,16.194v16.728c0,8.931-7.265,16.194-16.195,16.194
				H506.812l-17.103,36.402h119.539c29.002,0,52.597-23.595,52.597-52.596v-16.728C661.844,428.695,638.249,405.101,609.247,405.101
				z"/>
		</g>
		<rect id="XMLID_748_" x="693.857" y="268.993" fill="#FFF" width="36.402" height="34.208"/>
	</g>
	<g id="XMLID_709_">
		<path id="XMLID_730_" fill="#FFF" d="M159.745,561.046v15.411H78.874v-15.411H159.745z M109.98,691.643v-21.275H98.813v26.045
			h-19.46V620.29h79.913v76.124h-24.085l-3.829-11.56h8.454v-14.486H128.64v21.275H109.98z M132.151,601.768l-4.308,14.307h-45.46
			v-35.766h73.853v35.766h-24.085v-20.361h-26.959v6.055H132.151z M98.813,654.593h5.583l-3.35-15.226h14.038l3.188,15.226h2.075
			l3.188-15.226h14.038l-3.35,15.226h5.583v-17.979H98.813V654.593z M210.151,561.046v15.59h24.088v82.543h-24.088v23.108h5.742
			l-3.667,14.677h-51.044v-14.677h25.522v-23.108h-24.088v-82.543h24.088v-15.59H210.151z M182.237,645.237h4.467v-54.109h-4.467
			V645.237z M210.151,591.128v54.109h4.467v-54.109H210.151z M217.968,696.963l-3.67-28.798h18.663l3.512,28.798H217.968z"/>
		<path id="XMLID_721_" fill="#FFF" d="M318.546,629.097l-1.916-10.64h3.509l2.075-14.121h23.767l-3.03,24.762H318.546z
			 M349.331,631.115v-30.631h-32.222v-16.695h32.222v-23.657h25.043v23.657h32.701v16.695h-32.701v30.631H349.331z M318.863,679.719
			c5.904-0.549,12.125-1.463,18.184-2.747c-6.7-5.87-11.164-13.023-13.08-21.466h-6.859v-16.689h6.062v-5.684h25.043v5.684h27.596
			v-5.684h25.043v5.684h6.221v16.689h-7.179c-1.913,8.443-6.38,15.596-13.08,21.466c6.062,1.284,12.442,2.197,18.343,2.747v17.244
			c-16.109-0.37-30.785-2.568-43.227-6.789c-12.283,4.221-27.117,6.419-43.068,6.789V679.719z M320.459,581.043l-2.712-19.812h23.13
			l1.596,9.721h3.667l-2.709,10.091H320.459z M374.056,655.507h-24.088c2.233,5.32,6.541,9.357,11.963,12.659
			C367.515,664.863,371.823,660.827,374.056,655.507z M380.754,629.097l-3.03-24.762h23.767l2.075,14.121h3.509l-1.916,10.64
			H380.754z M380.595,581.043l-2.712-10.091h3.67l1.596-9.721h23.127l-2.709,19.812H380.595z M412.179,601.768l-2.233-10.27h3.188
			l8.296-31.366h25.043l-4.625,15.59h33.656v16.874h-2.871c-1.913,28.428-6.538,50.258-16.43,67.317
			c3.988,4.765,8.933,8.986,15.313,12.473v24.391c-11.963-5.499-21.214-11.739-28.71-19.442
			c-7.817,7.703-17.546,13.942-29.351,19.442v-24.391c6.541-3.672,11.804-8.073,16.271-13.208
			c-7.338-13.757-11.646-30.631-14.675-51.727h23.606c1.437,9.171,2.871,17.423,4.787,24.762c3.03-11.005,4.784-24.027,5.742-39.617
			h-12.283l-2.709,9.171H412.179z"/>
		<path id="XMLID_717_" fill="#FFF" d="M665.568,695.865H560.61v-18.343l31.584-57.411h-37.009v-17.059H714.22v17.059h-89.169
			l-32.539,57.775h82.308L665.568,695.865z M704.329,564.169v17.238H565.077v-17.238H704.329z M689.653,637.898l23.45,57.966
			h-30.626l-21.854-57.966H689.653z"/>
		<path id="XMLID_710_" fill="#FFF" d="M794.06,694.76v-17.059h8.613v-69.15h-8.613v-17.423h36.207V694.76H794.06z
			 M801.078,587.826l-5.901-26.959h27.117l3.509,15.405h4.781l-2.233,11.554H801.078z M840.314,694.76l-9.568-17.059h120.912
			l-9.574,17.059H840.314z M943.36,598.83v7.708H907.47v9.9h41.955v16.325H907.47v39.803h-33.818l-4.946-12.103h10.209v-27.699
			h-43.063v-16.325h43.063v-9.9h-37.003v-7.708h-8.772l15.951-38.149h28.71l-11.963,29.533h54.073l-5.425-13.393h-40.835l6.7-16.14
			h56.307l15.951,38.149H943.36z M839.362,670.369l-3.988-13.942h6.059l2.868-17.973h24.884l-4.305,31.915H839.362z
			 M920.553,670.369l-4.467-31.915h25.04l2.712,17.973h6.065l-3.988,13.942H920.553z"/>
	</g>
</g>
</svg>
